<svg width="1024" height="1024" viewBox="0 0 1024 1024" fill="none" xmlns="http://www.w3.org/2000/svg">
<style>path{fill:#1a1a2e}@media(prefers-color-scheme:dark){path{fill:#e8d5b7}}</style>
<path d="M771.647 451.966C771.647 460.639 761.542 467.578 741.331 472.782C731.515 481.456 719.1 493.599 704.086 509.212C689.072 524.825 673.481 542.172 657.313 561.254C640.567 580.336 626.131 599.418 614.004 618.501C612.849 632.957 609.385 645.389 603.61 655.797C597.836 666.206 589.463 671.41 578.491 671.41C570.407 671.41 565.21 669.097 562.9 664.471C560.013 659.845 558.569 654.063 558.569 647.124C558.569 642.498 558.858 637.872 559.436 633.246C560.013 628.042 560.302 622.837 560.302 617.633C560.879 593.925 561.745 571.952 562.9 551.713C563.478 531.474 563.766 512.392 563.766 494.467C563.766 482.902 563.766 471.915 563.766 461.507C563.189 450.52 562.611 439.822 562.034 429.414C536.626 417.849 509.198 404.839 479.748 390.382C449.721 375.926 419.982 360.603 390.532 344.412C367.435 332.269 342.604 318.102 316.042 301.911C288.902 285.142 262.628 268.083 237.22 250.736C211.235 232.81 187.849 215.463 167.061 198.694C146.273 181.925 129.815 166.601 117.689 152.723C110.182 144.628 101.232 133.641 90.8376 119.763C80.4436 105.307 71.4932 90.8508 63.9864 76.3946C55.9022 61.9385 52.7262 50.0844 54.4585 40.8325C55.036 38.5195 56.4796 37.0739 58.7894 36.4956C61.0991 35.3391 61.9653 36.2065 61.3879 39.0977C60.8104 43.7237 62.8315 49.2171 67.4511 55.5778C71.4932 61.9385 76.6902 68.2992 83.0421 74.6599C88.8166 81.0206 93.7249 86.5139 97.767 91.1399C130.681 122.943 164.751 150.699 199.975 174.407C234.622 198.116 270.712 220.089 308.246 240.327C345.78 260.566 385.335 281.383 426.912 302.778C447.7 313.187 469.354 323.595 491.874 334.003C514.395 343.834 536.626 353.664 558.569 363.494C557.992 351.929 557.992 338.918 558.569 324.462C559.147 309.428 560.879 296.707 563.766 286.298C566.076 275.89 570.407 271.264 576.759 272.42C582.533 274.155 584.843 278.203 583.688 284.563L581.09 299.309C578.203 308.561 575.893 315.499 574.16 320.125C571.851 324.173 570.696 329.956 570.696 337.473C570.696 339.786 570.984 342.388 571.562 345.279C571.562 347.592 571.851 350.194 572.428 353.085L575.027 371.3C607.941 385.178 638.546 397.032 666.841 406.862C694.558 416.693 715.924 423.053 730.937 425.945C758.077 432.305 771.647 440.979 771.647 451.966ZM516.993 920.345C518.148 945.21 511.796 962.846 497.937 973.255C484.079 983.085 469.931 988 455.495 988L448.566 988C441.059 988 436.728 986.554 435.573 983.663C435.573 983.085 435.573 982.218 435.573 981.061C435.573 978.748 437.883 977.592 442.503 977.592C448.855 977.592 456.073 976.724 464.157 974.989C471.664 972.676 475.417 966.894 475.417 957.642C475.417 950.125 473.107 937.114 468.488 918.61C463.291 900.107 454.34 879.579 441.636 857.027C426.045 829.271 401.793 796.6 368.878 759.014C335.964 721.428 289.768 679.795 230.291 634.113C217.01 624.283 201.419 614.742 183.518 605.49C165.04 596.238 148.294 587.564 133.28 579.469C117.689 571.374 107.584 563.856 102.964 556.917C100.077 551.135 98.6332 546.509 98.6332 543.039C98.6332 536.679 101.809 533.498 108.161 533.498C115.668 533.498 122.886 538.124 129.815 547.376C133.28 552.581 139.632 559.809 148.871 569.061C158.11 577.734 166.483 583.806 173.99 587.275C214.411 604.044 253.1 623.127 290.057 644.522C327.013 665.917 358.484 689.047 384.469 713.911C402.37 730.102 421.715 749.473 442.503 772.025C463.291 793.998 480.903 817.706 495.339 843.149C509.775 868.014 516.993 893.746 516.993 920.345ZM970 804.985C970 818.863 967.402 832.452 962.205 845.751C957.585 858.473 943.726 869.459 920.628 878.711C906.77 884.494 889.735 887.385 869.524 887.385C847.581 887.385 824.772 884.783 801.097 879.579C777.422 873.796 755.19 866.857 734.402 858.762C713.614 850.666 696.579 842.86 683.298 835.343C662.51 823.778 641.144 811.057 619.201 797.179C597.258 782.723 575.893 768.556 555.105 754.678C538.359 743.113 520.169 730.391 500.536 716.513C480.325 702.635 464.446 691.938 452.897 684.421L422.581 665.339C407.567 656.087 390.821 645.967 372.343 634.981C353.865 623.994 333.943 612.718 312.577 601.153C291.789 590.167 271.867 580.915 252.811 573.397C241.84 568.771 231.735 565.302 222.495 562.989C213.256 560.676 204.883 559.519 197.377 559.519C185.25 559.519 176.589 562.989 171.391 569.928C169.659 572.819 168.216 574.265 167.061 574.265C164.173 574.265 163.596 570.795 165.328 563.856C168.216 554.026 173.413 547.376 180.919 543.907C188.426 539.859 196.799 537.835 206.038 537.835C213.545 537.835 221.341 538.703 229.425 540.437C237.509 542.172 244.727 544.485 251.079 547.376C282.839 556.628 326.725 576.289 382.737 606.357C438.749 635.848 504.578 670.832 580.224 711.309C629.884 738.487 674.059 760.171 712.748 776.362C751.437 792.553 784.928 804.985 813.223 813.659C833.434 819.441 852.49 824.067 870.39 827.537C888.869 831.006 903.594 832.741 914.565 832.741C936.508 832.741 950.078 828.115 955.275 818.863C959.895 811.924 962.782 806.141 963.937 801.516C964.514 799.203 965.38 798.046 966.535 798.046C968.845 798.046 970 800.359 970 804.985ZM714.48 477.987C707.551 477.987 700.044 477.698 691.96 477.119C683.875 475.963 675.791 474.228 667.707 471.915C660.2 470.18 649.806 466.711 636.525 461.507C623.243 456.302 607.364 449.942 588.885 442.425C592.927 462.663 597.258 484.058 601.878 506.61C605.92 529.162 609.385 550.557 612.272 570.795C620.934 560.965 631.616 550.268 644.32 538.703C656.447 527.138 668.862 516.151 681.565 505.743C693.692 494.756 704.663 485.504 714.48 477.987Z" fill="white"/>
</svg>
